<?xml version="1.0" encoding="UTF-8"?>
<svg xmlns="http://www.w3.org/2000/svg" xmlns:xlink="http://www.w3.org/1999/xlink" width="85px" height="85px" viewBox="0 0 85 85" version="1.1">
<g id="surface1">
<path style=" stroke:none;fill-rule:nonzero;fill:rgb(0.784314%,0.784314%,0.784314%);fill-opacity:1;" d="M 85.332031 30.546875 C 85.332031 48.917969 85.332031 67.125 85.332031 85.332031 C 57 85.332031 28.664062 85.332031 0.332031 85.332031 C 0.332031 57 0.332031 28.664062 0.332031 0.332031 C 28.664062 0.332031 57 0.332031 85.332031 0.332031 C 85.332031 10.347656 85.332031 20.363281 85.332031 30.546875 M 16.984375 69.660156 C 21.042969 73.40625 25.539062 76.417969 31.089844 78.140625 C 33.75 78.738281 36.382812 79.574219 39.074219 79.878906 C 44.421875 80.484375 49.707031 79.984375 55.035156 78.039062 C 60.390625 76.097656 65.183594 73.261719 69.328125 69.011719 C 73.246094 64.890625 76.371094 60.285156 78.140625 54.574219 C 78.71875 51.96875 79.519531 49.386719 79.835938 46.746094 C 80.632812 40.078125 79.644531 33.644531 76.695312 27.308594 C 74.792969 23.292969 72.394531 19.625 69.039062 16.367188 C 64.917969 12.429688 60.300781 9.300781 54.574219 7.523438 C 51.914062 6.925781 49.28125 6.089844 46.585938 5.785156 C 41.238281 5.179688 35.957031 5.679688 30.628906 7.625 C 25.117188 9.625 20.214844 12.574219 16 16.988281 C 12.261719 21.042969 9.238281 25.535156 7.523438 31.089844 C 6.957031 33.644531 6.207031 36.171875 5.867188 38.757812 C 4.988281 45.488281 6.015625 51.964844 8.96875 58.351562 C 10.945312 62.53125 13.472656 66.316406 16.984375 69.660156 Z M 16.984375 69.660156 "/>
<path style=" stroke:none;fill-rule:nonzero;fill:rgb(86.666667%,86.666667%,86.666667%);fill-opacity:1;" d="M 8.953125 58.109375 C 6.015625 51.964844 4.988281 45.488281 5.867188 38.757812 C 6.207031 36.171875 6.957031 33.644531 7.691406 30.984375 C 8 30.878906 8.144531 30.875 8.28125 31.003906 C 6.847656 35.414062 6.21875 39.804688 6.382812 44.316406 C 6.546875 48.945312 7.734375 53.335938 9.316406 57.730469 C 9.164062 57.921875 9.058594 58.015625 8.953125 58.109375 Z M 8.953125 58.109375 "/>
<path style=" stroke:none;fill-rule:nonzero;fill:rgb(86.666667%,86.666667%,86.666667%);fill-opacity:1;" d="M 76.710938 27.554688 C 79.644531 33.644531 80.632812 40.078125 79.835938 46.746094 C 79.519531 49.386719 78.71875 51.96875 77.972656 54.679688 C 77.664062 54.785156 77.519531 54.789062 77.382812 54.660156 C 79.015625 49.597656 79.871094 44.519531 79.070312 39.378906 C 78.46875 35.546875 77.246094 31.8125 76.347656 27.933594 C 76.5 27.742188 76.605469 27.648438 76.710938 27.554688 Z M 76.710938 27.554688 "/>
<path style=" stroke:none;fill-rule:nonzero;fill:rgb(86.666667%,86.666667%,86.666667%);fill-opacity:1;" d="M 30.878906 7.640625 C 35.957031 5.679688 41.238281 5.179688 46.585938 5.785156 C 49.28125 6.089844 51.914062 6.925781 54.679688 7.691406 C 54.785156 8 54.789062 8.144531 54.660156 8.28125 C 46.644531 5.625 38.757812 5.804688 30.878906 8.179688 C 30.878906 7.929688 30.878906 7.785156 30.878906 7.640625 Z M 30.878906 7.640625 "/>
<path style=" stroke:none;fill-rule:nonzero;fill:rgb(86.666667%,86.666667%,86.666667%);fill-opacity:1;" d="M 54.785156 78.023438 C 49.707031 79.984375 44.421875 80.484375 39.074219 79.878906 C 36.382812 79.574219 33.75 78.738281 30.984375 77.972656 C 30.878906 77.664062 30.875 77.519531 31.003906 77.382812 C 39.019531 80.039062 46.90625 79.859375 54.785156 77.484375 C 54.785156 77.734375 54.785156 77.878906 54.785156 78.023438 Z M 54.785156 78.023438 "/>
<path style=" stroke:none;fill-rule:nonzero;fill:rgb(87.843138%,87.450981%,87.450981%);fill-opacity:1;" d="M 30.753906 7.632812 C 30.878906 7.785156 30.878906 7.929688 30.777344 8.242188 C 25.304688 10.308594 20.691406 13.394531 16.585938 17.253906 C 16.425781 17.078125 16.316406 16.992188 16.203125 16.90625 C 20.214844 12.574219 25.117188 9.625 30.753906 7.632812 Z M 30.753906 7.632812 "/>
<path style=" stroke:none;fill-rule:nonzero;fill:rgb(87.843138%,87.843138%,87.843138%);fill-opacity:1;" d="M 77.378906 54.789062 C 77.519531 54.789062 77.664062 54.785156 77.914062 54.785156 C 76.371094 60.285156 73.246094 64.890625 69.136719 68.996094 C 68.871094 68.777344 68.796875 68.582031 68.765625 68.277344 C 69.292969 67.746094 69.824219 67.359375 70.253906 66.882812 C 73.441406 63.332031 75.679688 59.21875 77.378906 54.789062 Z M 77.378906 54.789062 "/>
<path style=" stroke:none;fill-rule:nonzero;fill:rgb(87.843138%,87.843138%,87.843138%);fill-opacity:1;" d="M 68.726562 68.382812 C 68.796875 68.582031 68.871094 68.777344 69.03125 69.035156 C 65.183594 73.261719 60.390625 76.097656 54.910156 78.03125 C 54.785156 77.878906 54.785156 77.734375 54.886719 77.421875 C 60.222656 75.308594 64.917969 72.535156 68.726562 68.382812 Z M 68.726562 68.382812 "/>
<path style=" stroke:none;fill-rule:nonzero;fill:rgb(87.843138%,87.843138%,87.843138%);fill-opacity:1;" d="M 54.789062 8.285156 C 54.789062 8.144531 54.785156 8 54.785156 7.75 C 60.300781 9.300781 64.917969 12.429688 68.996094 16.515625 C 68.871094 16.769531 68.792969 16.871094 68.613281 16.933594 C 64.570312 13.007812 59.945312 10.226562 54.789062 8.285156 Z M 54.789062 8.285156 "/>
<path style=" stroke:none;fill-rule:nonzero;fill:rgb(87.843138%,87.843138%,87.843138%);fill-opacity:1;" d="M 16.101562 16.949219 C 16.316406 16.992188 16.425781 17.078125 16.542969 17.355469 C 12.78125 21.363281 10.1875 25.902344 8.285156 30.875 C 8.144531 30.875 8 30.878906 7.75 30.878906 C 9.238281 25.535156 12.261719 21.042969 16.101562 16.949219 Z M 16.101562 16.949219 "/>
<path style=" stroke:none;fill-rule:nonzero;fill:rgb(88.235295%,88.235295%,88.235295%);fill-opacity:1;" d="M 30.875 77.378906 C 30.875 77.519531 30.878906 77.664062 30.882812 77.914062 C 25.539062 76.417969 21.042969 73.40625 16.996094 69.464844 C 17.121094 69.191406 17.234375 69.113281 17.449219 69.070312 C 21.363281 72.882812 25.902344 75.476562 30.875 77.378906 Z M 30.875 77.378906 "/>
<path style=" stroke:none;fill-rule:nonzero;fill:rgb(87.843138%,87.843138%,87.843138%);fill-opacity:1;" d="M 68.714844 16.976562 C 68.792969 16.871094 68.871094 16.769531 69.039062 16.621094 C 72.394531 19.625 74.792969 23.292969 76.703125 27.433594 C 76.605469 27.648438 76.5 27.742188 76.253906 27.859375 C 74.34375 23.773438 71.671875 20.277344 68.714844 16.976562 Z M 68.714844 16.976562 "/>
<path style=" stroke:none;fill-rule:nonzero;fill:rgb(87.843138%,87.843138%,87.843138%);fill-opacity:1;" d="M 17.347656 69.03125 C 17.234375 69.113281 17.121094 69.191406 16.957031 69.363281 C 13.472656 66.316406 10.945312 62.53125 8.960938 58.230469 C 9.058594 58.015625 9.164062 57.921875 9.410156 57.804688 C 11.417969 62.039062 14.140625 65.703125 17.347656 69.03125 Z M 17.347656 69.03125 "/>
<path style=" stroke:none;fill-rule:nonzero;fill:rgb(0.784314%,0.784314%,0.784314%);fill-opacity:1;" d="M 17.449219 69.070312 C 14.140625 65.703125 11.417969 62.039062 9.457031 57.707031 C 7.734375 53.335938 6.546875 48.945312 6.382812 44.316406 C 6.21875 39.804688 6.847656 35.414062 8.28125 31.003906 C 10.1875 25.902344 12.78125 21.363281 16.59375 17.449219 C 20.691406 13.394531 25.304688 10.308594 30.777344 8.351562 C 38.757812 5.804688 46.644531 5.625 54.660156 8.28125 C 59.945312 10.226562 64.570312 13.007812 68.613281 16.933594 C 71.671875 20.277344 74.34375 23.773438 76.207031 27.957031 C 77.246094 31.8125 78.46875 35.546875 79.070312 39.378906 C 79.871094 44.519531 79.015625 49.597656 77.382812 54.660156 C 75.679688 59.21875 73.441406 63.332031 70.253906 66.882812 C 69.824219 67.359375 69.292969 67.746094 68.765625 68.277344 C 64.917969 72.535156 60.222656 75.308594 54.886719 77.3125 C 46.90625 79.859375 39.019531 80.039062 31.003906 77.382812 C 25.902344 75.476562 21.363281 72.882812 17.449219 69.070312 M 64.757812 21.636719 C 64.707031 21.570312 64.652344 21.507812 64.691406 21.238281 C 65.511719 20.140625 66.328125 19.046875 67.203125 17.871094 C 66.507812 17.25 65.882812 16.6875 65.203125 16.078125 C 63.058594 18.898438 61.035156 21.5625 59.09375 24.121094 C 60.183594 26.035156 61.480469 26.136719 63.136719 25.117188 C 64.21875 24.449219 65.453125 24.035156 66.617188 23.503906 C 66.710938 23.613281 66.800781 23.71875 66.890625 23.828125 C 65.664062 25.480469 64.433594 27.132812 63.164062 28.84375 C 63.628906 29.605469 64.074219 30.347656 64.542969 31.121094 C 67.714844 29.65625 70.753906 28.257812 73.859375 26.824219 C 73.363281 25.980469 72.953125 25.277344 72.503906 24.515625 C 70.984375 25.191406 69.539062 25.832031 68.097656 26.472656 C 68.03125 26.363281 67.96875 26.253906 67.90625 26.148438 C 68.925781 24.789062 69.941406 23.429688 70.992188 22.03125 C 70.433594 21.332031 69.886719 20.644531 69.308594 19.921875 C 67.792969 20.585938 66.34375 21.21875 64.757812 21.636719 M 65.039062 48.21875 C 68.75 32.085938 55.378906 18.304688 40.101562 20.171875 C 28.332031 21.609375 19.308594 32.097656 19.976562 43.808594 C 20.675781 56.050781 30.496094 65.578125 42.535156 65.6875 C 53.117188 65.785156 61.996094 58.976562 65.039062 48.21875 M 43.515625 18.59375 C 43.847656 17.929688 44.230469 17.289062 44.503906 16.605469 C 45.003906 15.351562 45.445312 14.070312 45.910156 12.800781 C 45.980469 12.832031 46.054688 12.859375 46.125 12.890625 C 46.234375 14.789062 46.34375 16.6875 46.453125 18.570312 C 47.4375 18.714844 48.230469 18.832031 48.921875 18.9375 C 48.921875 15.453125 48.921875 12.105469 48.921875 8.660156 C 47.589844 8.5 46.464844 8.363281 45.285156 8.21875 C 44.484375 10.492188 43.71875 12.664062 42.816406 15.21875 C 41.902344 12.585938 41.152344 10.425781 40.375 8.195312 C 39.128906 8.363281 38.011719 8.515625 36.722656 8.695312 C 36.722656 12.1875 36.722656 15.535156 36.722656 18.960938 C 37.535156 18.828125 38.386719 18.6875 39.246094 18.546875 C 39.347656 16.550781 39.441406 14.691406 39.535156 12.835938 C 40.308594 14.285156 40.949219 15.777344 41.375 17.328125 C 41.667969 18.402344 42.207031 18.777344 43.515625 18.59375 M 14.914062 26.394531 C 16.933594 28.007812 18.953125 29.621094 21.027344 31.285156 C 22.75 29.132812 24.386719 27.054688 26.0625 25.007812 C 27.050781 23.804688 27.613281 22.550781 26.628906 21.109375 C 25.660156 19.683594 24.296875 19.636719 23.285156 20.035156 C 22.382812 19.042969 21.769531 17.9375 20.835938 17.492188 C 20.226562 17.199219 18.855469 17.578125 18.347656 18.136719 C 16.441406 20.230469 14.753906 22.523438 12.933594 24.804688 C 13.613281 25.351562 14.167969 25.796875 14.914062 26.394531 Z M 14.914062 26.394531 "/>
<path style=" stroke:none;fill-rule:nonzero;fill:rgb(98.823529%,98.823529%,99.215686%);fill-opacity:1;" d="M 65.007812 48.351562 C 61.996094 58.976562 53.117188 65.785156 42.535156 65.6875 C 30.496094 65.578125 20.675781 56.050781 19.976562 43.808594 C 19.308594 32.097656 28.332031 21.609375 40.101562 20.171875 C 55.378906 18.304688 68.75 32.085938 65.007812 48.351562 M 42.828125 42.53125 C 42.828125 35.441406 42.828125 28.347656 42.828125 21.253906 C 29.820312 21.410156 20.910156 32.890625 21.347656 42.820312 C 28.507812 42.820312 35.675781 42.820312 42.792969 43.128906 C 42.792969 50.1875 42.792969 57.25 42.792969 64.300781 C 53.636719 64.789062 64.628906 54.679688 64.328125 42.847656 C 57.164062 42.847656 49.992188 42.847656 42.828125 42.53125 Z M 42.828125 42.53125 "/>
<path style=" stroke:none;fill-rule:nonzero;fill:rgb(96.078432%,96.078432%,96.078432%);fill-opacity:1;" d="M 43.378906 18.59375 C 42.207031 18.777344 41.667969 18.402344 41.375 17.328125 C 40.949219 15.777344 40.308594 14.285156 39.535156 12.835938 C 39.441406 14.691406 39.347656 16.550781 39.246094 18.546875 C 38.386719 18.6875 37.535156 18.828125 36.722656 18.960938 C 36.722656 15.535156 36.722656 12.1875 36.722656 8.695312 C 38.011719 8.515625 39.128906 8.363281 40.375 8.195312 C 41.152344 10.425781 41.902344 12.585938 42.816406 15.21875 C 43.71875 12.664062 44.484375 10.492188 45.285156 8.21875 C 46.464844 8.363281 47.589844 8.5 48.921875 8.660156 C 48.921875 12.105469 48.921875 15.453125 48.921875 18.9375 C 48.230469 18.832031 47.4375 18.714844 46.453125 18.570312 C 46.34375 16.6875 46.234375 14.789062 46.125 12.890625 C 46.054688 12.859375 45.980469 12.832031 45.910156 12.800781 C 45.445312 14.070312 45.003906 15.351562 44.503906 16.605469 C 44.230469 17.289062 43.847656 17.929688 43.378906 18.59375 Z M 43.378906 18.59375 "/>
<path style=" stroke:none;fill-rule:nonzero;fill:rgb(96.470588%,96.470588%,96.470588%);fill-opacity:1;" d="M 64.890625 21.851562 C 66.34375 21.21875 67.792969 20.585938 69.308594 19.921875 C 69.886719 20.644531 70.433594 21.332031 70.992188 22.03125 C 69.941406 23.429688 68.925781 24.789062 67.90625 26.148438 C 67.96875 26.253906 68.03125 26.363281 68.097656 26.472656 C 69.539062 25.832031 70.984375 25.191406 72.503906 24.515625 C 72.953125 25.277344 73.363281 25.980469 73.859375 26.824219 C 70.753906 28.257812 67.714844 29.65625 64.542969 31.121094 C 64.074219 30.347656 63.628906 29.605469 63.164062 28.84375 C 64.433594 27.132812 65.664062 25.480469 66.890625 23.828125 C 66.800781 23.71875 66.710938 23.613281 66.617188 23.503906 C 65.453125 24.035156 64.21875 24.449219 63.136719 25.117188 C 61.480469 26.136719 60.183594 26.035156 59.09375 24.121094 C 61.035156 21.5625 63.058594 18.898438 65.203125 16.078125 C 65.882812 16.6875 66.507812 17.25 67.203125 17.871094 C 66.328125 19.046875 65.511719 20.140625 64.566406 21.410156 C 64.589844 21.671875 64.742188 21.761719 64.890625 21.851562 Z M 64.890625 21.851562 "/>
<path style=" stroke:none;fill-rule:nonzero;fill:rgb(96.470588%,96.470588%,96.470588%);fill-opacity:1;" d="M 14.820312 26.316406 C 14.167969 25.796875 13.613281 25.351562 12.933594 24.804688 C 14.753906 22.523438 16.441406 20.230469 18.347656 18.136719 C 18.855469 17.578125 20.226562 17.199219 20.835938 17.492188 C 21.769531 17.9375 22.382812 19.042969 23.285156 20.035156 C 24.296875 19.636719 25.660156 19.683594 26.628906 21.109375 C 27.613281 22.550781 27.050781 23.804688 26.0625 25.007812 C 24.386719 27.054688 22.75 29.132812 21.027344 31.285156 C 18.953125 29.621094 16.933594 28.007812 14.820312 26.316406 M 22.960938 22.40625 C 21.816406 23.730469 20.671875 25.054688 19.46875 26.445312 C 20.085938 26.949219 20.582031 27.359375 21.171875 27.839844 C 22.195312 26.578125 23.21875 25.421875 24.113281 24.175781 C 24.898438 23.085938 24.476562 22.433594 22.960938 22.40625 M 16.671875 23.339844 C 16.972656 23.976562 17.269531 24.609375 17.707031 25.542969 C 18.90625 24 19.828125 22.914062 20.609375 21.734375 C 20.828125 21.402344 20.621094 20.789062 20.613281 20.304688 C 20.089844 20.363281 19.390625 20.230469 19.085938 20.519531 C 18.25 21.300781 17.582031 22.261719 16.671875 23.339844 Z M 16.671875 23.339844 "/>
<path style=" stroke:none;fill-rule:nonzero;fill:rgb(0.392157%,55.686277%,80.000001%);fill-opacity:1;" d="M 42.820312 42.847656 C 49.992188 42.847656 57.164062 42.847656 64.328125 42.847656 C 64.628906 54.679688 53.636719 64.789062 42.792969 64.300781 C 42.792969 57.25 42.792969 50.1875 42.8125 42.980469 C 42.832031 42.832031 42.820312 42.847656 42.820312 42.847656 Z M 42.820312 42.847656 "/>
<path style=" stroke:none;fill-rule:nonzero;fill:rgb(0.392157%,55.686277%,80.000001%);fill-opacity:1;" d="M 42.839844 42.824219 C 35.675781 42.820312 28.507812 42.820312 21.347656 42.820312 C 20.910156 32.890625 29.820312 21.410156 42.828125 21.253906 C 42.828125 28.347656 42.828125 35.441406 42.824219 42.691406 C 42.820312 42.847656 42.832031 42.832031 42.839844 42.824219 Z M 42.839844 42.824219 "/>
<path style=" stroke:none;fill-rule:nonzero;fill:rgb(0.784314%,0.784314%,0.784314%);fill-opacity:1;" d="M 64.824219 21.742188 C 64.742188 21.761719 64.589844 21.671875 64.519531 21.511719 C 64.652344 21.507812 64.707031 21.570312 64.824219 21.742188 Z M 64.824219 21.742188 "/>
<path style=" stroke:none;fill-rule:nonzero;fill:rgb(5.490196%,5.490196%,5.490196%);fill-opacity:1;" d="M 23.070312 22.355469 C 24.476562 22.433594 24.898438 23.085938 24.113281 24.175781 C 23.21875 25.421875 22.195312 26.578125 21.171875 27.839844 C 20.582031 27.359375 20.085938 26.949219 19.46875 26.445312 C 20.671875 25.054688 21.816406 23.730469 23.070312 22.355469 Z M 23.070312 22.355469 "/>
<path style=" stroke:none;fill-rule:nonzero;fill:rgb(5.098039%,5.098039%,5.098039%);fill-opacity:1;" d="M 16.761719 23.246094 C 17.582031 22.261719 18.25 21.300781 19.085938 20.519531 C 19.390625 20.230469 20.089844 20.363281 20.613281 20.304688 C 20.621094 20.789062 20.828125 21.402344 20.609375 21.734375 C 19.828125 22.914062 18.90625 24 17.707031 25.542969 C 17.269531 24.609375 16.972656 23.976562 16.761719 23.246094 Z M 16.761719 23.246094 "/>
</g>
</svg>
